PathFileType	4	(X/Y/Z)	C:\Users\Hakeem\Desktop\Python Projects\BasketballMotionAnalysis\Sports2D_Results\free_throw_Sports2D\free_throw_Sports2D_px_person00.trc
DataRate	CameraRate	NumFrames	NumMarkers	Units	OrigDataRate	OrigDataStartFrame	OrigNumFrames
30.0	30.0	6	22	m	30.0	45	90
Frame#	Time	Hip			RHip			RKnee			RAnkle			RBigToe			RSmallToe			RHeel			LHip			LKnee			LAnkle			LBigToe			LSmallToe			LHeel			Neck			Head			Nose			RShoulder			RElbow			RWrist			LShoulder			LElbow			LWrist			
		X1	Y1	Z1	X2	Y2	Z2	X3	Y3	Z3	X4	Y4	Z4	X5	Y5	Z5	X6	Y6	Z6	X7	Y7	Z7	X8	Y8	Z8	X9	Y9	Z9	X10	Y10	Z10	X11	Y11	Z11	X12	Y12	Z12	X13	Y13	Z13	X14	Y14	Z14	X15	Y15	Z15	X16	Y16	Z16	X17	Y17	Z17	X18	Y18	Z18	X19	Y19	Z19	X20	Y20	Z20	X21	Y21	Z21	X22	Y22	Z22
45	1.5168539325842696	534.2306341191037	665.0011924255055	0.0	527.9666882898988	663.746386136537	0.0	557.4681127631438	757.3430669790416	0.0	499.59798516158173	841.0091379648184	0.0	529.5406821487477	871.2104020265691	0.0	518.6533399683739	869.8092628694081	0.0	481.6802646107795	854.3798364472439	0.0	540.2645251890011	663.3978106947135	0.0	558.2197165298177	755.1962308293023	0.0	522.4456084356498	832.0938679714332	0.0	551.7400757045534	856.3849925751908	0.0	548.4874571686245	849.4535938566665	0.0	508.55061474823265	845.9287969217405	0.0	535.4428356451219	527.3619585929422	0.0	513.5500219978132	468.5915493145542	0.0	545.1602290834373	493.2701449831519	0.0	535.8856652262529	535.8720879328388	0.0	594.2362433354631	497.49235954475307	0.0	579.0365996973842	452.18471362723363	0.0	538.5648565263843	535.0721916522909	0.0	593.5341618842635	501.06639206943385	0.0	581.5529238774654	454.40828633020806	0.0
46	1.550561797752809	534.5415278076484	654.8983086977963	0.0	528.0213870379538	654.0377360068569	0.0	544.9076041997365	750.7431290405328	0.0	499.0212632505432	840.4620333830901	0.0	529.1581095278387	870.3080089348116	0.0	518.6556060903081	870.1705558151962	0.0	482.04729251468206	853.6658548217762	0.0	541.477068299794	654.2961737618339	0.0	554.868741038036	748.6288234878808	0.0	521.8432882898712	829.978279918617	0.0	551.0501657202848	855.8991013703677	0.0	548.3354630017352	849.0354344279465	0.0	509.32383893937487	843.872238180586	0.0	536.7018142111256	516.8441262092654	0.0	510.80418933209125	459.9951681901151	0.0	542.5775237799302	482.8378836287968	0.0	536.6412913720319	525.6773051558849	0.0	594.5575408983129	487.6942483321933	0.0	585.8459003932563	438.47557402871655	0.0	542.0271575123115	524.6206738723795	0.0	594.090993485814	493.05579208989116	0.0	588.0078671868328	441.40041775552953	0.0
47	1.5842696629213482	535.7793510520042	645.5185426594464	0.0	527.9442007174312	644.7925935953497	0.0	532.602286553788	744.5400894916191	0.0	498.4116028925688	839.0161490639921	0.0	528.9076513310083	869.6674230976884	0.0	518.4589820117786	870.780985433759	0.0	483.571616056984	851.8952305626545	0.0	542.9602319665951	646.1525489163676	0.0	549.763174433183	742.3591689925712	0.0	522.2872562391808	827.5859137702423	0.0	550.099549566807	855.602455741707	0.0	548.8061423001931	848.5333723832365	0.0	512.0491562603671	840.6817183775049	0.0	538.352426559256	507.195350507364	0.0	508.7193180378391	452.28659943385384	0.0	539.522963339964	473.6577805978859	0.0	537.1163516163494	515.5904026012432	0.0	592.7435946253817	475.60861567342647	0.0	591.7733694365797	424.2342446813587	0.0	547.3410389957594	514.8368661527326	0.0	595.0549616147944	486.75644279291686	0.0	595.2151496037362	430.6809610871339	0.0
48	1.6179775280898876	537.5697237369614	638.5032765471345	0.0	528.0866689749281	637.5362481934407	0.0	523.4014985503538	739.3463793898683	0.0	498.48388445835946	836.6050258000446	0.0	530.0730961866672	868.5351595515926	0.0	518.823743356105	870.1616196314503	0.0	486.59359197216884	849.3040158742372	0.0	544.2484452849474	640.2310846335138	0.0	543.7066506856229	737.3279217771565	0.0	524.1482112501822	825.1106698629156	0.0	549.3756138057058	855.1606777563662	0.0	550.0605261419495	847.6305309850068	0.0	515.387350486788	837.1473151628861	0.0	539.579182595357	499.6295937445884	0.0	508.3197086130254	446.0440901831831	0.0	537.2816297835931	467.01771887502986	0.0	537.0947811312474	506.9932488948804	0.0	589.0663417643416	461.07550207570523	0.0	597.5965160972017	410.2049175916217	0.0	552.7998540510705	507.3099585822557	0.0	596.3848228498063	482.46034763997625	0.0	602.3794640025436	425.2672501322914	0.0
49	1.651685393258427	538.7171112661764	634.040726337303	0.0	528.3746288838051	632.749730922833	0.0	517.6657498811659	735.3483385215166	0.0	499.8933445839571	833.7356382663872	0.0	532.5195984245252	867.1485973417119	0.0	519.732977964616	868.2145889952717	0.0	490.56702886394146	846.3611880510864	0.0	545.0279740358989	636.3981033317252	0.0	538.448933401038	733.699765890078	0.0	527.0426610232628	822.4051107527131	0.0	549.2522574385629	854.3244894606834	0.0	551.7021041330037	846.2639043459653	0.0	518.2727118699255	833.9718110848737	0.0	540.042560545582	494.390219844501	0.0	509.63096323364954	440.745998955818	0.0	537.1020589515427	462.5772390355032	0.0	536.4709125898625	500.6693262473691	0.0	585.7857611181845	447.19563313956655	0.0	603.7716613088347	397.908550984392	0.0	555.9028456836712	502.1121129846321	0.0	597.3738945621095	479.7943945188803	0.0	608.0353522117223	423.96501370499163	0.0
50	1.6853932584269662	538.9693924385552	631.2323831937309	0.0	528.6007735410215	629.9073100238138	0.0	514.8212421542448	733.1503898316595	0.0	501.95880632584465	831.3362813182458	0.0	534.1962626187477	866.345226038499	0.0	520.3406971212405	866.5348430550347	0.0	494.12197517565306	843.7107749080121	0.0	545.6662269469632	633.7656207469983	0.0	535.2980884703845	731.3900448943355	0.0	529.769609749249	819.7803836131551	0.0	549.2237790415483	853.5505693508846	0.0	553.0173316126206	845.1438801726047	0.0	520.3232096728975	831.3822679629234	0.0	540.096268381399	491.10929821464043	0.0	511.23585071622773	436.0239072503306	0.0	538.89777208084	459.3029155397956	0.0	535.485075159436	496.6024393499037	0.0	584.7668052852787	439.7207102758722	0.0	608.264250832819	391.79326222762245	0.0	556.1958215438036	498.6440765130145	0.0	597.4428927051273	478.887302511024	0.0	611.2792454260177	423.5562340940873	0.0
